<?xml version="1.0" encoding="UTF-8" standalone="no"?>
<svg
   width="16646400"
   height="238144"
   viewBox="0 0 16646400 238144"
   version="1.1"
   xml:space="preserve"
   style="clip-rule:evenodd;fill-rule:evenodd;stroke-linejoin:round;stroke-miterlimit:2"
   id="svg10"
   xmlns="http://www.w3.org/2000/svg"
   xmlns:svg="http://www.w3.org/2000/svg"><defs
     id="defs10" /><g
     id="g10"><path
       d="m 128.258,486.373 c 50.796,0 85.366,-19.717 112.88,-48.59 v 40.131 H 372.876 V 258.746 c 0,-53.629 -11.976,-93.103 -40.86,-121.277 -30.293,-30.287 -76.788,-46.486 -145.202,-46.486 -65.601,0 -111.391,11.973 -154.364,29.582 l 27.474,93.731 c 34.519,-13.416 65.516,-21.183 105.725,-21.183 51.502,0 76.193,22.595 76.193,62.817 v 6.336 C 219.973,253.818 186.109,247.483 150.128,247.483 60.629,247.483 0.749,287.61 0.749,367.29 v 1.411 c 0,75.42 54.949,117.672 127.509,117.672 z m 47.974,-83.801 c -27.515,0 -47.27,-15.524 -47.27,-41.633 v -1.411 c 0,-28.931 21.871,-47.278 61.38,-47.278 19.754,0 38.803,4.234 52.909,9.879 v 17.641 c 0,38.81 -27.511,62.802 -67.019,62.802 z"
       style="fill:#cdd2d3;fill-opacity:1;fill-rule:nonzero"
       id="path1" /><path
       d="m 498.36,486.373 c 54.319,0 90.3,-29.608 114.288,-61.33 v 52.871 H 745.796 V 96.623 H 612.648 v 206.551 c 0,42.297 -23.282,64.151 -56.441,64.151 -33.159,0 -54.325,-21.854 -54.325,-64.151 V 96.623 H 368.029 v 248.848 c 0,87.326 48.61,140.902 130.331,140.902 z"
       style="fill:#cdd2d3;fill-opacity:1;fill-rule:nonzero"
       id="path2" /><path
       d="m 905.825,485.669 c 37.358,0 68.376,-9.165 93.049,-22.559 V 358.859 c -16.214,7.758 -33.133,12.695 -50.756,12.695 -24.674,0 -36.658,-10.58 -36.658,-38.087 v -129.78 h 88.824 V 96.623 H 911.46 V 0.044 H 778.312 v 96.579 h -45.117 v 107.064 h 45.117 v 155.877 c 0,90.857 46.496,126.105 127.513,126.105 z"
       style="fill:#cdd2d3;fill-opacity:1;fill-rule:nonzero"
       id="path3" /><path
       d="m 1178.68,487.078 c 121.974,0 211.442,-90.163 211.442,-199.456 v -1.411 c 0,-108.589 -88.059,-198.048 -210.031,-198.048 -121.975,0 -210.738,90.164 -210.738,199.459 v 1.41 c 0,109.291 88.059,198.046 209.327,198.046 z m 1.411,-113.409 c -47.258,0 -81.114,-39.497 -81.114,-86.047 v -1.411 c 0,-47.256 31.035,-85.343 79.703,-85.343 47.963,0 81.819,39.498 81.819,86.754 v 1.41 c 0,45.845 -31.74,84.637 -80.408,84.637 z"
       style="fill:#cdd2d3;fill-opacity:1;fill-rule:nonzero"
       id="path4" /><path
       d="m 1383.16,477.914 h 133.853 V 271.363 c 0,-42.297 23.282,-64.856 56.441,-64.856 33.159,0 54.324,22.559 54.324,64.856 v 206.551 h 133.148 V 228.361 c 0,-87.365 -47.904,-140.198 -129.625,-140.198 -54.32,0 -89.595,30.291 -114.288,61.99 V 96.623 H 1383.16 Z"
       style="fill:#cdd2d3;fill-opacity:1;fill-rule:nonzero"
       id="path5" /><path
       d="m 1961.18,487.078 c 121.973,0 211.442,-90.163 211.442,-199.456 v -1.411 c 0,-108.589 -88.06,-198.048 -210.032,-198.048 -121.974,0 -210.737,90.164 -210.737,199.459 v 1.41 c 0,109.291 88.059,198.046 209.327,198.046 z m 1.41,-113.409 c -47.257,0 -81.114,-39.497 -81.114,-86.047 v -1.411 c 0,-47.256 31.035,-85.343 79.704,-85.343 47.963,0 81.819,39.498 81.819,86.754 v 1.41 c 0,45.845 -31.74,84.637 -80.409,84.637 z"
       style="fill:#cdd2d3;fill-opacity:1;fill-rule:nonzero"
       id="path6" /><path
       d="m 2165.66,477.914 h 133.852 V 270.658 c 0,-42.297 22.578,-64.151 54.327,-64.151 31.749,0 52.914,21.854 52.914,64.151 v 207.256 h 133.148 V 270.658 c 0,-42.297 23.283,-64.151 55.032,-64.151 31.749,0 52.209,21.854 52.209,64.151 v 207.256 h 133.853 V 227.656 c 0,-89.478 -48.609,-139.493 -130.33,-139.493 -56.437,0 -94.536,23.247 -127.671,61.99 -20.43,-39.448 -59.177,-61.99 -109.9,-61.99 -53.611,0 -88.888,28.882 -113.582,60.581 V 96.623 H 2165.66 Z"
       style="fill:#cdd2d3;fill-opacity:1;fill-rule:nonzero"
       id="path7" /><path
       d="m 2981.25,487.078 c 121.973,0 211.442,-90.163 211.442,-199.456 v -1.411 c 0,-108.589 -88.06,-198.048 -210.032,-198.048 -121.974,0 -210.737,90.164 -210.737,199.459 v 1.41 c 0,109.291 88.059,198.046 209.327,198.046 z m 1.41,-113.409 c -47.257,0 -81.114,-39.497 -81.114,-86.047 v -1.411 c 0,-47.256 31.035,-85.343 79.704,-85.343 47.963,0 81.819,39.498 81.819,86.754 v 1.41 c 0,45.845 -31.74,84.637 -80.409,84.637 z"
       style="fill:#cdd2d3;fill-opacity:1;fill-rule:nonzero"
       id="path8" /><path
       d="m 3313.24,486.373 c 54.319,0 90.301,-29.608 114.288,-61.33 v 52.871 h 133.148 V 96.623 h -133.148 v 206.551 c 0,42.297 -23.282,64.151 -56.441,64.151 -33.159,0 -54.324,-21.854 -54.324,-64.151 V 96.623 H 3182.91 v 248.848 c 0,87.326 48.609,140.902 130.33,140.902 z"
       style="fill:#cdd2d3;fill-opacity:1;fill-rule:nonzero"
       id="path9" /><path
       d="m 3720.74,486.373 c 93.052,0 155.747,-43.665 155.747,-127.522 v -1.41 c 0,-74.051 -59.877,-100.85 -135.28,-121.302 -39.522,-11.989 -62.107,-19.042 -62.107,-33.852 v -1.41 c 0,-11.284 10.587,-19.043 31.054,-19.043 30.347,0 73.347,13.401 112.796,35.968 l 45.788,-84.564 c -44.379,-28.171 -100.734,-44.37 -157.173,-44.37 -87.411,0 -152.923,45.074 -152.923,126.114 v 1.41 c 0,76.166 59.877,102.26 135.279,121.302 40.229,11.284 62.107,16.926 62.107,33.146 v 1.411 c 0,13.399 -11.292,20.452 -34.582,20.452 -39.523,0 -86.021,-14.81 -130.4,-43.725 l -50.028,80.348 c 52.845,38.736 114.836,57.047 179.722,57.047 z"
       style="fill:#cdd2d3;fill-opacity:1;fill-rule:nonzero"
       id="path10" /><rect
       x="3940.03"
       y="340.53601"
       width="138.78799"
       height="137.37801"
       style="fill:#cdd2d3;fill-opacity:1;fill-rule:nonzero"
       id="rect10" /></g></svg>
