<?xml version="1.0" encoding="UTF-8" standalone="no"?><!DOCTYPE svg PUBLIC "-//W3C//DTD SVG 1.1//EN" "http://www.w3.org/Graphics/SVG/1.1/DTD/svg11.dtd"><svg width="100%" height="100%" viewBox="0 0 4080 488" version="1.1" xmlns="http://www.w3.org/2000/svg" xmlns:xlink="http://www.w3.org/1999/xlink" xml:space="preserve" xmlns:serif="http://www.serif.com/" style="fill-rule:evenodd;clip-rule:evenodd;stroke-linejoin:round;stroke-miterlimit:2;"><g><path d="M128.258,486.373c50.796,0 85.366,-19.717 112.88,-48.59l-0,40.131l131.738,0l0,-219.168c0,-53.629 -11.976,-93.103 -40.86,-121.277c-30.293,-30.287 -76.788,-46.486 -145.202,-46.486c-65.601,-0 -111.391,11.973 -154.364,29.582l27.474,93.731c34.519,-13.416 65.516,-21.183 105.725,-21.183c51.502,0 76.193,22.595 76.193,62.817l0,6.336c-21.869,-8.448 -55.733,-14.783 -91.714,-14.783c-89.499,-0 -149.379,40.127 -149.379,119.807l0,1.411c0,75.42 54.949,117.672 127.509,117.672Zm47.974,-83.801c-27.515,0 -47.27,-15.524 -47.27,-41.633l0,-1.411c0,-28.931 21.871,-47.278 61.38,-47.278c19.754,0 38.803,4.234 52.909,9.879l0,17.641c0,38.81 -27.511,62.802 -67.019,62.802Z" style="fill:#004e5e;fill-rule:nonzero;"/><path d="M498.36,486.373c54.319,0 90.3,-29.608 114.288,-61.33l0,52.871l133.148,0l0,-381.291l-133.148,-0l0,206.551c0,42.297 -23.282,64.151 -56.441,64.151c-33.159,-0 -54.325,-21.854 -54.325,-64.151l0,-206.551l-133.853,-0l0,248.848c0,87.326 48.61,140.902 130.331,140.902Z" style="fill:#004e5e;fill-rule:nonzero;"/><path d="M905.825,485.669c37.358,-0 68.376,-9.165 93.049,-22.559l0,-104.251c-16.214,7.758 -33.133,12.695 -50.756,12.695c-24.674,0 -36.658,-10.58 -36.658,-38.087l0,-129.78l88.824,0l0,-107.064l-88.824,-0l0,-96.579l-133.148,0l0,96.579l-45.117,-0l0,107.064l45.117,0l0,155.877c0,90.857 46.496,126.105 127.513,126.105Z" style="fill:#004e5e;fill-rule:nonzero;"/><path d="M1178.68,487.078c121.974,0 211.442,-90.163 211.442,-199.456l0,-1.411c0,-108.589 -88.059,-198.048 -210.031,-198.048c-121.975,0 -210.738,90.164 -210.738,199.459l0,1.41c0,109.291 88.059,198.046 209.327,198.046Zm1.411,-113.409c-47.258,0 -81.114,-39.497 -81.114,-86.047l-0,-1.411c-0,-47.256 31.035,-85.343 79.703,-85.343c47.963,-0 81.819,39.498 81.819,86.754l-0,1.41c-0,45.845 -31.74,84.637 -80.408,84.637Z" style="fill:#004e5e;fill-rule:nonzero;"/><path d="M1383.16,477.914l133.853,0l-0,-206.551c-0,-42.297 23.282,-64.856 56.441,-64.856c33.159,0 54.324,22.559 54.324,64.856l0,206.551l133.148,0l0,-249.553c0,-87.365 -47.904,-140.198 -129.625,-140.198c-54.32,0 -89.595,30.291 -114.288,61.99l-0,-53.53l-133.853,-0l-0,381.291Z" style="fill:#004e5e;fill-rule:nonzero;"/><path d="M1961.18,487.078c121.973,0 211.442,-90.163 211.442,-199.456l-0,-1.411c-0,-108.589 -88.06,-198.048 -210.032,-198.048c-121.974,0 -210.737,90.164 -210.737,199.459l0,1.41c0,109.291 88.059,198.046 209.327,198.046Zm1.41,-113.409c-47.257,0 -81.114,-39.497 -81.114,-86.047l0,-1.411c0,-47.256 31.035,-85.343 79.704,-85.343c47.963,-0 81.819,39.498 81.819,86.754l-0,1.41c-0,45.845 -31.74,84.637 -80.409,84.637Z" style="fill:#004e5e;fill-rule:nonzero;"/><path d="M2165.66,477.914l133.852,0l0,-207.256c0,-42.297 22.578,-64.151 54.327,-64.151c31.749,0 52.914,21.854 52.914,64.151l0,207.256l133.148,0l0,-207.256c0,-42.297 23.283,-64.151 55.032,-64.151c31.749,0 52.209,21.854 52.209,64.151l0,207.256l133.853,0l0,-250.258c0,-89.478 -48.609,-139.493 -130.33,-139.493c-56.437,0 -94.536,23.247 -127.671,61.99c-20.43,-39.448 -59.177,-61.99 -109.9,-61.99c-53.611,0 -88.888,28.882 -113.582,60.581l0,-52.121l-133.852,-0l-0,381.291Z" style="fill:#004e5e;fill-rule:nonzero;"/><path d="M2981.25,487.078c121.973,0 211.442,-90.163 211.442,-199.456l-0,-1.411c-0,-108.589 -88.06,-198.048 -210.032,-198.048c-121.974,0 -210.737,90.164 -210.737,199.459l0,1.41c0,109.291 88.059,198.046 209.327,198.046Zm1.41,-113.409c-47.257,0 -81.114,-39.497 -81.114,-86.047l0,-1.411c0,-47.256 31.035,-85.343 79.704,-85.343c47.963,-0 81.819,39.498 81.819,86.754l-0,1.41c-0,45.845 -31.74,84.637 -80.409,84.637Z" style="fill:#004e5e;fill-rule:nonzero;"/><path d="M3313.24,486.373c54.319,0 90.301,-29.608 114.288,-61.33l0,52.871l133.148,0l0,-381.291l-133.148,-0l0,206.551c0,42.297 -23.282,64.151 -56.441,64.151c-33.159,-0 -54.324,-21.854 -54.324,-64.151l-0,-206.551l-133.853,-0l-0,248.848c-0,87.326 48.609,140.902 130.33,140.902Z" style="fill:#004e5e;fill-rule:nonzero;"/><path d="M3720.74,486.373c93.052,0 155.747,-43.665 155.747,-127.522l0,-1.41c0,-74.051 -59.877,-100.85 -135.28,-121.302c-39.522,-11.989 -62.107,-19.042 -62.107,-33.852l0,-1.41c0,-11.284 10.587,-19.043 31.054,-19.043c30.347,-0 73.347,13.401 112.796,35.968l45.788,-84.564c-44.379,-28.171 -100.734,-44.37 -157.173,-44.37c-87.411,0 -152.923,45.074 -152.923,126.114l-0,1.41c-0,76.166 59.877,102.26 135.279,121.302c40.229,11.284 62.107,16.926 62.107,33.146l0,1.411c0,13.399 -11.292,20.452 -34.582,20.452c-39.523,-0 -86.021,-14.81 -130.4,-43.725l-50.028,80.348c52.845,38.736 114.836,57.047 179.722,57.047Z" style="fill:#004e5e;fill-rule:nonzero;"/><rect x="3940.03" y="340.536" width="138.788" height="137.378" style="fill:#004e5e;fill-rule:nonzero;"/></g></svg>